<svg xmlns="http://www.w3.org/2000/svg" xmlns:xlink="http://www.w3.org/1999/xlink" width="225.978" height="131.1" viewBox="0 0 59.79 34.687">
    <style>
        use#dot1 {
            will-change: transform;
            animation: dots infinite .5s alternate cubic-bezier(0, 0, 0.2, 1);
            animation-delay: 0s;
        }
        use#dot2 {
            will-change: transform;
            animation: dots infinite .5s alternate cubic-bezier(0, 0, 0.2, 1);
            animation-delay: .2s;
        }
        use#dot3 {
            will-change: transform;
            animation: dots infinite .5s alternate cubic-bezier(0, 0, 0.2, 1);
            animation-delay: .4s;
        }

        @keyframes dots {
            from {
                transform: translateY(0px);
            } to {
                transform: translateY(-5px)
            }
        }
    </style>
    <path d="M5.186 17.352q1.257.794 1.965 1.788.708.975.99 2.5.283 1.517.283 3.9 0 1.788.07 2.636.09.85.32 1.282.248.45.584.578.336.144 1.15.27.673.1 1.115.668.442.578.442 1.517 0 2.185-2.602 2.185-1.61 0-2.885-.686-1.257-.686-1.947-1.95-.7-1.246-.708-2.87-.053-2.745-.106-4.406-.053-1.66-.16-2.15-.265-1.2-.796-1.824-.513-.614-1.363-1.138-.832-.542-1.186-.957Q0 18.273 0 17.352q0-1.336 1.027-2.004 1.274-.813 1.805-1.372.55-.578.76-1.463.23-.903.265-1.95.035-1.065.106-5.092.053-2.492 1.54-3.972Q7.01 0 9.505 0q2.602 0 2.602 2.15 0 .975-.442 1.535-.425.56-1.115.65-1.027.144-1.434.433-.407.29-.53 1.12-.124.83-.16 3.214-.035 2.33-.283 3.828-.23 1.48-.938 2.528-.7 1.047-2.018 1.896z"/>
    <use xlink:href="#dot" id="dot1"/>
    <use xlink:href="#dot" id="dot2" x="11.328"/>
    <use xlink:href="#dot" id="dot3" x="22.656"/>
    <path d="M54.604 17.352q-.956-.614-1.558-1.282-.602-.668-.99-1.625-.39-.957-.55-2.257-.16-1.318-.16-3.088 0-1.715-.07-2.618-.07-.92-.283-1.336-.212-.415-.602-.56-.372-.163-1.15-.253-.655-.1-1.115-.65-.442-.56-.442-1.535Q47.683 0 50.25 0q1.646 0 2.885.686 1.257.668 1.965 1.932.726 1.246.743 2.853.106 5.995.248 6.59.283 1.192.832 1.824.55.614 1.327 1.1.78.47 1.15.94.39.47.39 1.426 0 1.354-1.01 1.986-1.24.776-1.805 1.372-.55.578-.78 1.463-.212.867-.265 2.618-.035 1.75-.09 4.388-.053 2.492-1.575 3.99-1.504 1.517-4.018 1.517-1.24 0-1.912-.56-.655-.56-.655-1.625 0-.596.212-1.1.212-.488.55-.758.354-.27.796-.325.796-.108 1.186-.27.39-.163.584-.614.212-.45.265-1.336.07-.867.07-2.546.035-2.492.283-3.9.248-1.408.938-2.42.7-1.01 2.035-1.878z"/>
    <defs ><path id="dot" d="M18.602 27.374q-1.097 0-1.894-.722-.796-.722-.796-2.022 0-1.1.76-1.896.76-.795 1.876-.795 1.115 0 1.894.795.796.776.796 1.896 0 1.282-.796 2.022-.78.722-1.84.722z"/></defs>
</svg>